<?xml version="1.0" encoding="UTF-8"?>
<svg id="Capa_8" xmlns="http://www.w3.org/2000/svg" version="1.1" viewBox="0 0 1214.9792935 157.4810236">
  <!-- Generator: Adobe Illustrator 30.0.0, SVG Export Plug-In . SVG Version: 2.1.1 Build 123)  -->
  <defs>
    <style>
      .st0 {
        fill: none;
        stroke: #fff;
        stroke-linecap: round;
        stroke-linejoin: round;
        stroke-width: 5px;
      }
    </style>
  </defs>
  <g>
    <circle class="st0" cx="622.5593262" cy="79.6442541" r="11.1615892"/>
    <path class="st0" d="M617.4683364,89.5785681c4.9349727-.2157491,9.3078761-3.7143891,10.4119191-8.7758265,1.1025807-5.0547335-1.4161154-10.0566268-5.8129584-12.3079095"/>
    <path class="st0" d="M671.4544453,90.7313351c-6.114615,28.0315979-33.6923816,43.9488309-62.6074766,40.1853586-28.9141154-3.7673736-46.4552422-33.8689691-40.1855401-62.6074304,6.1146751-28.0336422,33.6925669-43.946733,62.6076298-40.185668,28.9163506,3.7592883,46.4531274,33.8729656,40.1853868,62.6077399Z"/>
    <path class="st0" d="M600.5256203,129.1890885c-28.2151606-4.416101-45.1996396-34.0910587-39.0149998-62.4396194,6.1146751-28.0336422,33.6925669-43.946733,62.6076298-40.185668,1.8072702.2349553,3.570089.5728572,5.285423,1.006935"/>
    <path class="st0" d="M625.0618698,30.9812973c-5.7200076-1.8672371-14.4858846-.8619466-19.4614501,1.8963564-6.9180371,3.8373411-5.8977367,10.9151526-10.6226801,16.0037594-2.8131689,3.0383829-7.2074384,3.4514656-10.6003663,5.7482853-5.8584593,3.9636144-8.1971775,11.1045011-6.1281369,17.7563534,1.2381043,3.9784335,4.9652052,6.9376147,5.7125695,11.0036778,1.2015096,6.6070877-4.4271887,12.9914017-2.3416453,19.8425522,1.6609822,5.477109,7.4304963,10.1195149,12.8560618,11.9225259,4.3375168,1.4311126,8.6827818,1.0838441,12.7842699,3.5434002,2.8864499,1.7320858,4.6441343,4.6920134,7.6558085,6.3100194,8.3776667,4.512541,12.5618395-2.1281213,19.079315-5.9134907,5.6633764-3.2831417,11.7212447-1.4713071,17.7395502-3.6804347,7.0302561-2.5833434,12.4252473-10.6675579,11.9330287-17.9525872-.5063818-7.3857971-1.9580798-9.7270626,1.1384633-17.2422687,2.869578-6.9663474,4.0710764-10.6127728-.0110541-17.3454687-1.8763855-3.0886211-4.0867494-5.1295218-5.2889946-8.6383805-.9678728-2.8211175-.7087565-5.3704954-2.3627056-8.0291042-4.3439046-6.9626121-10.0050239-7.1926719-17.5095745-7.3190258-8.3570975-.1265244-7.251759-5.5132033-14.5724593-7.9061696Z"/>
    <line class="st0" x1="631.9150632" y1="49.0405869" x2="626.2993806" y2="54.6629374"/>
    <line class="st0" x1="648.3329892" y1="65.834311" x2="644.6448555" y2="58.7955338"/>
    <line class="st0" x1="609.2425576" y1="104.1851805" x2="605.5544239" y2="97.1464033"/>
    <line class="st0" x1="630.6218921" y1="109.1997627" x2="626.9337584" y2="102.1609855"/>
    <line class="st0" x1="651.6728674" y1="79.140195" x2="644.2382337" y2="81.9460704"/>
    <line class="st0" x1="610.9991216" y1="48.3408008" x2="613.3853749" y2="54.3040281"/>
    <line class="st0" x1="604.8204129" y1="63.787499" x2="599.0944881" y2="66.697494"/>
    <line class="st0" x1="599.1524202" y1="86.4186925" x2="594.2642412" y2="90.5852247"/>
    <line class="st0" x1="650.5085678" y1="95.6413732" x2="645.0873423" y2="99.0858758"/>
  </g>
  <polygon class="st0" points="454.6790501 6.0140082 438.6167548 48.8467956 465.7489205 48.8467956 442.6323286 94.802807 460.0331485 94.802807 423.8929841 151.4670153 431.031782 105.5110039 412.2924375 105.5110039 434.1550061 65.8014406 411.9278324 65.8014406 454.6790501 6.0140082"/>
  <g>
    <path class="st0" d="M832.2619806,103.8359017l-56.1063492-88.2409742c-8.6724651,1.0340869-23.7307116,10.2388885-26.0572422,16.5680031l56.1063492,88.2409742,31.9492844,21.4821913-5.8920422-38.0501944Z"/>
    <path class="st0" d="M787.9716484,34.1785078c-8.6724651,1.0340869-23.7307116,10.2388885-26.0572422,16.5680031"/>
    <path class="st0" d="M793.5047622,42.8806843c-8.6724651,1.0340869-23.7307116,10.2388885-26.0572422,16.5680031"/>
    <polyline class="st0" points="803.0354454 115.4194156 811.2725648 116.8883715 813.4338363 108.807796 821.6726558 110.2756709 823.8420214 102.1899491 832.0844156 103.655551"/>
    <line class="st0" x1="803.5287762" y1="100.7986646" x2="778.3691207" y2="61.228945"/>
    <line class="st0" x1="814.0967806" y1="94.0791995" x2="788.9371252" y2="54.5094799"/>
    <line class="st0" x1="826.6267097" y1="133.2118091" x2="835.2821824" y2="127.708391"/>
  </g>
  <g>
    <path class="st0" d="M977.8203368,48.3579058h25.1848942c10.1961872,0,18.4741976,8.2780104,18.4741976,18.4741976v58.6446485c0,12.0364158-9.7720425,21.8084582-21.8084582,21.8084582h-18.5163751c-12.0364145,0-21.8084559-9.7720414-21.8084559-21.8084559v-58.6446508c0-10.1961872,8.2780104-18.4741976,18.4741976-18.4741976Z" transform="translate(63.7633801 460.8744771) rotate(-27.035522)"/>
    <rect class="st0" x="971.2345708" y="60.0960997" width="7.1152452" height="14.2304904" rx="2.4974137" ry="2.4974137" transform="translate(75.9702792 450.4297574) rotate(-27.0355502)"/>
    <line class="st0" x1="953.7721733" y1="94.3674031" x2="1009.1158436" y2="66.1251687"/>
    <line class="st0" x1="978.0263763" y1="73.5490712" x2="980.7430899" y2="78.8727612"/>
    <line class="st0" x1="968.3238277" y1="54.5358924" x2="971.0405413" y2="59.8595824"/>
    <path class="st0" d="M967.6974147,53.0912947c-9.5783663-9.1217365,11.5345331-39.0508981-5.4305006-43.9695398-7.0467405-2.0430489-19.172562,28.3025071-21.6862283,30.5041064-14.5570466,12.7498168,7.4963734-45.3984306-30.0651329,14.4920911"/>
  </g>
  <g>
    <path class="st0" d="M264.0181319,40.120103c-11.7822,11.762464-32.267434,14.3419314-44.5578421,37.6292778l.1454784.0501234c-.8917307,1.7934148-1.6897042,3.6561255-2.3596644,5.6006199-8.3637122,24.2748622,4.5348701,50.7336008,28.8096448,59.0972828,24.2747747,8.363682,50.7335707-4.5347826,59.0972828-28.8096448.6699602-1.9444944,1.1886991-3.9034132,1.5908945-5.8654935l.0260689.0089818c.0314242-.1744298.0496905-.3410623.0792901-.514457.6604519-3.4143623.9247181-6.8351657.8194938-10.2109355-.2524014-19.409978-10.9605582-32.1117573-12.7916372-46.1098961"/>
    <path class="st0" d="M283.0523881,47.3342953c-1.8518245,5.3747407-8.5443319,33.8134287-11.1595262,44.605482-2.3757664,9.8040126,7.5878476,8.2262537,9.0753316,3.3272596,1.487484-4.8989941-3.5484971-10.6426164-13.5813463-14.0993554l-.358316-.123455c-10.0328492-3.456739-17.5379296-2.0340404-19.3837297,2.7414987-1.8458,4.7755391,5.0314399,12.1556813,9.1987866,2.9689436,4.5873286-10.11257,16.8323387-36.6381871,18.6841631-42.0129278"/>
    <path class="st0" d="M263.9408992,27.9294898l8.0323315-13.501918c1.1755486-1.7029347,3.3414318-2.4144421,5.297841-1.7403767l9.4278706,3.2482984,5.2966661,1.8249245,9.4278706,3.2482984c1.9564092.6740654,3.2243744,2.568678,3.1014958,4.6343019l-.9272091,7.264726"/>
    <line class="st0" x1="303.5977656" y1="32.9077443" x2="302.4692659" y2="41.7495914"/>
    <line class="st0" x1="303.3978308" y1="34.489474" x2="287.6525153" y2="36.5080391"/>
    <line class="st0" x1="270.0669645" y1="30.5241526" x2="304.4601661" y2="26.1008969"/>
    <line class="st0" x1="295.0631846" y1="18.985672" x2="267.3318814" y2="22.5469307"/>
    <path class="st0" d="M278.8836343,134.0233134c-1.7998768,1.2040343-4.0625534,2.3106791-6.7788028,3.0624446-3.4208586.9299258-6.514169,1.0229517-9.002927.7079962"/>
    <rect class="st0" x="257.5309541" y="35.1467619" width="47.5629296" height="10.0431684" rx="1.7326228" ry="1.7326228" transform="translate(28.4286839 -89.4464279) rotate(19.0109862)"/>
  </g>
  <g>
    <path class="st0" d="M7.7640485,32.6902624c-.0889681.9379462,74.0729668,90.5250708,74.0729668,90.5250708l77.50011-32.3969742L7.7640485,32.6902624Z"/>
    <path class="st0" d="M10.6224246,34.2232382l107.7256219,73.5276126.0524634,17.0399104c-1.3231112-.1255026-17.1502567-9.1978544-17.1502567-9.1978544"/>
    <path class="st0" d="M118.4005099,124.7907611s12.0289122-21.2567917,11.0365788-21.3509186c-.9923334-.0941269-111.7748007-66.0251503-111.7748007-66.0251503"/>
  </g>
  <g>
    <circle class="st0" cx="1170.1209697" cy="57.5458269" r="37.0943553"/>
    <circle class="st0" cx="1170.1209697" cy="57.5458269" r="28.6445488"/>
    <path class="st0" d="M1139.9466031,80.5594025l-47.4805603,47.4805603c-1.137729,1.137729-1.137729,2.9990793,0,4.1368083l3.9994839,3.9994839c1.137729,1.137729,2.9990793,1.137729,4.1368083,0l47.4805603-47.4805603-8.1362923-8.1362923Z"/>
    <path class="st0" d="M1167.0989519,37.5460634c2.9938021-.6810576,6.2279526-.441792,10.0181955,1.7477472"/>
  </g>
</svg>