<?xml version="1.0" encoding="UTF-8"?>
<svg id="Capa_1" xmlns="http://www.w3.org/2000/svg" version="1.1" viewBox="0 0 395.5452594 232.6449422">
  <!-- Generator: Adobe Illustrator 30.0.0, SVG Export Plug-In . SVG Version: 2.1.1 Build 123)  -->
  <defs>
    <style>
      .st0 {
        fill: #fff;
      }

      .st1 {
        fill: #eade27;
      }
    </style>
  </defs>
  <g>
    <path class="st0" d="M64.6863978,206.057807c0,15.8838516-12.4312382,23.1315915-24.8628428,24.4049372-3.6880776.3362863-7.9419256.572566-12.6495679.572566H0v-85.1778867h29.810428c3.6885262,0,7.1334464,0,10.5890724.2219929,13.1220447.9300992,20.3767446,8.0631794,20.3767446,20.1548346,0,7.7129727-4.6076356,15.998145-14.5061029,18.9888222,13.0074674,2.6543909,18.4162558,9.7805109,18.4162558,20.8347338ZM21.1711016,161.5049954v17.95835h12.4315226c3.46287,0,5.9919777-4.7219291,5.9919777-9.5442313,0-6.2245942-4.2533994-8.4141187-11.7443789-8.4141187h-6.6791214ZM43.5047547,205.4856074c0-5.7670543-3.1052544-10.3673635-11.6231253-10.3673635h-10.7105278v20.2621679h9.9057118c6.436046,0,12.4279413-2.6543909,12.4279413-9.8948043Z"/>
    <path class="st0" d="M75.2003744,205.7145605c-.2359966-3.806483-.2359966-8.1782054-.2359966-12.8931744v-46.9639627h21.1816431v54.7915951c0,10.8179433,4.6112989,15.8834853,13.7013712,15.8834853,8.399832,0,13.0147097-5.8740212,13.0147097-15.6545321v-55.0205482h20.2515439v46.9639627c0,4.7149689,0,9.0866914-.2326164,12.8931744-1.1484288,16.5703446-12.6568944,26.9303817-33.9528309,26.9303817-21.5215926,0-32.5688551-10.360037-33.727824-26.9303817Z"/>
    <path class="st0" d="M156.6182161,145.8574234h59.1703631l-.0608968,15.647572h-37.9311202v18.3092893h33.2769613l.0355335,15.6545321h-33.3124948v19.9115948h37.9311202v15.6548985h-59.1094663v-85.1778867Z"/>
    <path class="st0" d="M302.1503392,145.8574234v85.1778867h-18.6492385l-36.1423553-52.4877773v52.4877773h-20.2552072v-85.1778867h18.6455752l36.138692,52.4874109v-52.4874109h20.2625337Z"/>
    <path class="st0" d="M365.9637846,208.1326718h-25.3137888l-7.3730229,22.9026384h-22.3333688l29.4631519-85.1778867h27.8609372l27.2775663,85.1778867h-22.7810179l-6.8004569-22.9026384ZM353.76855,162.6640476l-8.9831116,29.8067655h17.1502366l-8.1671251-29.8067655Z"/>
  </g>
  <path class="st1" d="M393.706308,99.6806931c-.6150596-.6227525-1.3627289-.9374257-2.1964846-.9374257-.8407158,0-1.5810586.3146732-2.2393446.9802857l-2.2038111,2.6327777c-15.2394855,18.7598691-26.5512346,28.2758933-33.6165445,28.2758933-3.1840967,0-4.6684456-1.4022921-4.6684456-4.421909,0-8.5712721,4.3929692-19.8544481,13.0213878-33.4843021,10.5355065-13.6298539,12.0165584-16.7637642,12.2169381-17.9371031l.0106234-.1142934c0-2.9694304-1.8279617-3.8420165-3.3482103-4.0423963l-.0893833-.0073265c-2.8763838,0-5.7491043,2.5972442-8.7504048,7.9345993-1.7671517-6.7253605-5.9707309-10.1310839-12.5389378-10.1310839-8.3601787,0-16.7850106,5.5307747-25.0342829,16.434438-4.4504822,5.8740212-7.6917256,11.7626954-9.7486404,17.62243-22.8308381,27.2311345-37.952367,49.2820673-40.7429424,49.2820673-2.2929164,0-2.5969661-1.0733322-2.5969661-2.1177248,0-3.8423828,9.519321-29.2917125,14.5061916-43.4366194,5.119303-14.5028064,7.6092139-23.1030182,7.6092139-26.3010353,0-6.1245875-3.4342967-7.4052597-6.3070172-7.4052597-7.5305426,0-16.4454274,6.5465939-27.2560439,20.0189281-5.598911,6.9403933-12.9396973,17.0714772-21.8402954,30.164665,1.3238985-3.7134364,3.4024264-9.4299379,6.2033472-17.0784374,4.3786825-11.9627089,6.507397-19.8115881,6.507397-23.9972175,0-4.8365888-2.3932011-7.3979332-6.9367298-7.3979332-3.4306334.08572-7.5195529,2.6401042-12.4957114,7.8056529-4.7867685,4.9728617-11.2974624,12.3565082-19.3108214,21.9011059-13.6800401,14.8889129-24.2653667,22.4443658-31.4917736,22.4443658-4.1174929,0-7.2229156-1.2879987-9.2512571-3.8277298-2.060578-2.5829575-3.1122114-7.0118266-3.1122114-13.1649875,0-1.9100185.114574-3.4126836.3362007-4.4786893,18.2554391-9.573171,30.3613808-16.6205311,35.9456388-20.9277804,4.2537657-2.8045841,6.4106872-6.2388809,6.4106872-10.2098438,0-3.2624904-1.0623424-5.7454411-3.1623969-7.4052597-2.0496749-1.6169585-4.954632-2.4397244-8.6321685-2.4397244-6.1960207,0-12.7319049,2.9119173-19.4324413,8.6643187-8.7646915,8.0562192-14.3024262,17.007004-16.563384,26.708755-.1824298.1216199-.350573.264853-.5187162.4366594l-2.2034448,2.6258175c-13.8588067,17.0711109-25.0097391,25.7284694-33.1231048,25.7284694-1.5349017,0-2.7760107-.4795194-3.788533-1.4524786-.9945723-.9586725-1.4953386-2.4968711-1.4953386-4.5647757,0-6.2531676,4.6003091-16.2626316,13.6368137-29.7063924,10.5212198-13.5584205,11.7341218-16.8282374,11.7341218-18.1089096,0-2.2536313-1.2451386-3.49877-3.4987699-3.49877-1.520615,0-4.4932573,2.1034381-14.0591864,18.4950161l-16.0410046,24.6983635c-6.3392538,9.8665973-13.0037202,14.8607059-19.7866775,14.8607059-2.1393379,0-3.9064059-.572566-5.2585951-1.7173316-1.3092455-1.1161922-1.9818181-2.969064-1.9818181-5.5091615,0-3.6844968,1.1015392-8.6573585,3.2551638-14.7746195,2.1821979-6.1744077,4.4076222-11.6908957,6.6216904-16.3989045,3.9423894-8.2492725,7.5664425-14.45958,10.7465096-18.4378694.4831826-.5293396.7228434-1.2019123.7228434-1.9887784,0-.8158058-.3433307-1.6312452-1.0195666-2.4111511-.615426-.6941859-1.3129087-1.0733322-2.0748647-1.1663788l-.0142867-.0212468c-1.9103848-.307713-3.0980104,1.4953386-3.0980104,1.4953386-1.1304789,2.0891514-2.2682843,3.6844968-2.4470509,3.935063-.14653.1718064-.3791464.4436196-.7117694.8297261-.0109897.0073265-.0285733.0216132-.0395631.0358998-.1216199.1432331-.2611897.3003865-.411383.4652327-.0249101.0285733-.0534834.0571467-.0714334.08572-.1501932.1575197-.2970896.3289598-.4615695.5080928-.0358159.04286-.0787599.08572-.1216199.1359066-.1644799.1718064-.3326231.3575332-.5113058.5509528-.0466072.0498202-.0898335.1000067-.1396537.1501932-.1897563.2073399-.393433.4220064-.6117627.6509595-.0358998.04286-.0750966.0787599-.10367.1146597-.7729457.8154394-1.6601848,1.7242917-2.6579703,2.7042111-.0718835.0717997-.1538565.1432331-.2290369.2219929-.2542295.2432398-.5080927.4938061-.7692825.7513326-.1179566.1073332-.2359133.2146664-.3542363.3289598-.23225.2289531-.4721929.4509461-.7190959.6798992-.1392035.1285801-.2751101.2575265-.4146799.3861065-.2362796.2146664-.4721929.4366594-.715349.658286-.1538565.1359066-.307713.2791396-.4652327.4150462-.2396602.2216266-.4865633.4362931-.7298031.6509595-.1644799.1505596-.3325394.2934263-.5080927.4436196-.246903.2146664-.497103.4293329-.7512489.6513258-.1788502.1501932-.3469934.29306-.52576.4436196-.264853.2216266-.5365825.4505797-.804816.6725727-.1754697.1428667-.3471925.2860998-.5297059.4289666-.2897631.2432398-.5901495.4795194-.890536.715799-.161183.1285801-.3219997.2644866-.4868459.3861065-.3791464.3007528-.7725794.5938128-1.1623492.8945656-.0897496.0641069-.1753861.1359066-.264853.2073399-.4758562.350573-.965999.7154327-1.4594387,1.0660057-.161183.1216199-.3329894.2362796-.5011326.3578995-.3326231.2289531-.6579197.4648664-1.001449.701146-.2074234.1428667-.4187929.2791396-.6297961.4220064-.307713.2003798-.6080995.4077197-.9158125.6011393-.2326164.1501932-.454243.2934263-.6905226.4436196-.2967232.1860931-.5938128.3791464-.8941993.557913-.2432398.1501932-.4795194.2934263-.7190959.4366594-.3003865.1787666-.600773.3575332-.9015258.5293396-.2502.1428667-.497103.2791396-.7402595.4150462-.307713.1714401-.6117627.3362863-.9194757.5007663-.2469863.1359066-.4971863.2718131-.7550791.4007595-.3072634.1644799-.6259661.3146732-.9407226.4721929-.2502.1216199-.497103.2432398-.7512493.3648597-.3253798.1571534-.6583692.307713-.9946556.4579062-.2395765.1073332-.4791531.2146664-.7154327.3219997-.3754831.1644799-.7509662.307713-1.1231524.4579062-.21092.08572-.411383.1714401-.615426.2502-.5721996.2219929-1.1517257.4293329-1.7279549.6223862.1252831-.6795329.1934196-1.3806789.1934196-2.1034381,0-5.6377416-4.1354427-10.2098438-9.2442109-10.2098438-5.1120651,0-9.2401813,4.5721022-9.2401813,10.2098438,0,5.3303949,3.6918232,9.7021174,8.4031287,10.1669838l.0073265.0216132c.0820568,0,.1681432-.0073265.2539461-.0073265.1896735.0142867.38639.0358998.57578.0358998.3436957,0,.6798992-.0285733,1.0125222-.0644732-.454243,1.5524853-.9802028,3.0478239-1.5740984,4.4790557-.0750966.1787666-.14653.3575332-.2216266.5366661-.1644799.3861065-.3362863.7582927-.511756,1.1374391-.1787666.3791464-.3648597.7582927-.5615762,1.1304789-.1644799.3289598-.3326231.6509595-.5080927.9729592-.2575265.4652327-.5150529.9300992-.7905293,1.3737187-.1109965.1860931-.2216266.3648597-.3326231.5366661-.3721862.5868526-.7512498,1.1590523-1.1520921,1.7173316-5.1834985,7.1759402-10.5245167,10.8106168-15.8728614,10.8106168-5.5271113,0-8.2100755-3.6416367-8.2100755-11.1326165,0-3.9354294,1.1986153-9.4588776,3.5559166-16.406231,1.2520988-3.276777,2.3825777-6.0242145,3.3665266-8.1847993.1428667-.307713.2787733-.6011393.411383-.8945656C75.0002776,44.1022319,94.149916,17.1645237,94.149916,8.1349791c0-5.3230684-2.8976306-8.1349791-8.3745554-8.1349791-7.9884489,0-18.1015826,10.8252698-30.9123335,33.090869-7.412586,12.3063217-14.8819524,27.8249473-22.2586385,46.2272832-1.0516368,2.6327777-2.103438,5.3157419-3.1551571,8.0631794-.8337557,1.581425-19.2463482,24.1474107-27.6102801,34.2213479-.1538565.1575197-.2934263.3219997-.408086.4938061-.2073399.3003865-.3432465.6366728-.4220064.9945723-.0106234.04286-.0358998.08572-.0501865.1359066-.0069602.0930465-.0069602.1860931-.0249101.2791396-.0106234.1216199-.0249101.2359133-.0249101.3575332,0,.1359066.0142867.264853.0322366.393433.0106234.0717997.0106234.1432331.0175836.2146664.0179499.0717997.0501865.1359066.0645547.2146664.0860049.307713.2076248.6011393.3863914.880279.1109965.1714401.2432398.3289598.3897698.4864796.5975575.6223862,1.3524718.9443858,2.2360477.9443858.8407158,0,1.5810586-.3150395,2.2393446-.9802857l17.0498636-20.5984542c-.8692892,3.4200101-1.3092455,7.0400337-1.3092455,10.7893699h0c0,1.1802991.0644732,2.2895312.1718064,3.3555369.8799126,9.1507983,5.5521036,13.8016603,13.9409458,13.8016603,7.7986102,0,14.8891965-4.2929626,21.081554-12.7572678.3970963-.5436263.7762426-1.1015392,1.1484288-1.6667787.1000067-.1505596.1930533-.3007528.2897631-.4509461.3219997-.5080928.6330096-1.0231457.9337624-1.5455251.04286-.0783935.0963435-.1501932.1395698-.2289531.3432465-.6080995.6759526-1.2374458,1.0015325-1.8671585.0501865-.1146597.1073332-.2289531.1608167-.3362863.2897631-.5868526.5689027-1.1733389.8407158-1.7814384.0252764-.0717997.057596-.1362729.0893833-.2077063.3044161-.701146.6011393-1.4096186.8766987-2.1320114v-.0142867c.2790566-.7227592.5435433-1.4667653.7904463-2.2038111.0109897-.0358998.0216132-.0714334.0322366-.1073332.5044295-1.5312385.9407226-3.0980104,1.3166551-4.7006823v-.0069602h.0142036c8.9900647-2.182198,17.3216767-7.3623997,23.9792669-12.6785079-1.1733389,2.7760108-2.4507141,6.0245808-3.8244328,9.7376509-3.1445336,8.6144985-4.7398789,15.8549119-4.7398789,21.5215932,0,3.7420098,1.1627155,6.8971669,3.4485834,9.3727912,2.3001546,2.4972375,5.5164879,3.7636229,9.5658442,3.7636229,8.3961686,0,15.7871414-4.2501025,21.9937855-12.6283214.0289397,3.7277231,1.109232,6.6682138,3.23062,8.7430785,2.1320114,2.0891514,5.1798352,3.148197,9.0507913,3.148197,9.1724961,0,20.3980739-7.8990658,34.1998194-24.0829375.1002875,7.0689733,1.6025863,12.5781349,4.4610201,16.3699648,3.015673,3.9852496,7.9382623,6.0099278,14.6387126,6.0099278,9.7878372,0,23.639404-9.2867048,39.1795557-28.7118201.0036632-.014653.0142867-.0216132.0216132-.0289397.1572404-.1571534.2860998-.3146732.3970963-.4721929,15.6472052-18.6023493,21.3640729-22.7018923,23.363841-22.7018923.3256629,0,.5256763.0355335.5256763.6509595,0,3.3555369-2.6543908,12.3777551-7.8880758,26.8160883-5.3622651,14.7889062-7.9668357,23.4103648-7.9668357,26.3655085,0,3.6844968,2.3397177,4.2354495,3.7420097,4.2354495,1.5381986,0,2.8833439-.8440128,3.9815862-2.4968711,11.2546024-16.434438,19.2141116-27.839234,23.6466438-33.8850616,12.0414685-15.6761453,21.0922598-23.6323578,26.8948475-23.6323578.1216199,0,.2824366,0,.2824366.6513258,0,2.7042111-2.5756309,11.0611831-7.644836,24.8196171-5.1977852,14.1166998-14.7207694,39.8667824-14.7207694,45.1682376,0,.8227659.0175836,1.5455251.0498202,2.2180978.2432398,2.0821912,1.1737052,3.935063,3.48082,5.108402,0,0,4.650862,2.9621039,10.0025036-1.1733389,7.8024444-6.7184003,21.4571194-25.8431291,33.7455802-40.2100289-.0323259.6513258-.0466126,1.3022853-.0466126,1.9536112,0,4.5574492,1.0194824,8.256599,3.0335372,10.9824232,2.060578,2.8045841,5.2517245,4.2211629,9.4944109,4.2211629,6.1353006,0,12.1989882-3.54163,18.0587226-10.524517-.0571467,1.1733389-.0893833,2.6972509-.0893833,4.5860226,0,6.8543069,3.5919066,10.33183,10.6930262,10.33183,9.7805107,0,23.0810381-10.7538364,40.6496178-32.8619159.6011393-.6227525.9088523-1.3451454.9088523-2.1752378,0-.8370526-.3113762-1.5740985-.9374256-2.1891581ZM177.234986,84.0829413c7.7554662-9.2222316,15.0428553-13.9016671,21.6681226-13.9016671,4.9545454,0,5.5271113,2.0393312,5.5271113,3.5775299,0,.9158125-.6333759,2.5829575-3.6310132,5.3014553-5.6740076,4.3860091-16.0875279,10.4534499-30.9731435,18.058723.8872391-3.0837238,3.3772358-7.4624064,7.4089227-13.0360411ZM58.9911433,38.7861236c12.3312315-21.5717797,21.342826-32.5183031,26.7842173-32.5183031.1824298,0,.3469098.0142867.5007662.0355335.0355335.0073265.08572.0073265.1216199.0073265.1216199.0142867.2289531.0498202.3326231.0787599.0465233.0212468.1109965.0212468.1538565.0355335.0751803.0285733.1252831.0644732.1897563.100373.0571467.0285733.1322433.0571467.1858104.0930465.0680528.04286.1215363.1000067.175386.1571534.0355335.0285733.0677701.0501865.0893833.0787599.2934263.3578995.3579832.8158058.3579832,1.2806722,0,6.467834-15.4762151,28.4330468-46.0196594,65.2802122,4.4464526-10.6747102,10.202517-22.3014991,17.1282571-34.6290677ZM59.7530993,97.3981221l-.2110032.0571467c-.0391968.2505663-.08572.4795194-.1285801.7154327-.4795194.0787599-2.0604951.2864661-3.0016669-.0355335h-.0032969c-.0179499,0-.0322366-.0073265-.0432263-.0073265v-.0069602c-1.3304923-.4007595-2.3609645-2.0107579-2.3609645-3.8709562,0-2.1462981,1.3737187-3.9636364,3.0013006-3.9636364,1.2986221,0,2.4364274,1.1590523,2.8404839,2.7188641h0s.0073265.0212468.0109897.04286c.0784765.3146732.1285801.6509595.1428667.9872458.057513.7799059.057513,1.9532448-.246903,3.3628634ZM324.1796583,126.2462151c-1.6382053,0-3.0086271-.6795329-4.1995496-2.0748647-1.2055755-1.4096186-1.8173382-3.7203966-1.8173382-6.8612671,0-9.4801244,3.6343101-19.0675821,10.8073196-28.49752,7.1261199-9.365831,13.8800535-14.1166998,20.0903609-14.1166998,2.2466711,0,3.9995361,1.0590455,5.3589681,3.2412435,1.3880054,2.225058,2.1002316,5.5234482,2.121388,9.8021241-13.4723338,25.5497028-24.3620765,38.506984-32.3611488,38.506984Z"/>
</svg>