<?xml version="1.0" encoding="UTF-8"?>
<svg id="Capa_1" xmlns="http://www.w3.org/2000/svg" version="1.1" viewBox="0 0 395.5452594 232.6449422">
  <!-- Generator: Adobe Illustrator 30.0.0, SVG Export Plug-In . SVG Version: 2.1.1 Build 123)  -->
  <defs>
    <style>
      .st0 {
        fill: #161717;
      }
    </style>
  </defs>
  <g>
    <path class="st0" d="M75.5445621,190.2460791c0,14.5879289-11.4170054,21.2443443-22.8343472,22.413801-3.3871768.3088496-7.2939643.5258518-11.6175221.5258518h-24.9569312v-78.2284414h27.3782716c3.3875888,0,6.5514468,0,9.7251371.2038811,12.0514507.8542147,18.7142583,7.4053252,18.7142583,18.5104534,0,7.083691-4.2317104,14.6928974-13.3225872,17.4395729,11.9462215,2.4378259,16.9137207,8.9825441,16.9137207,19.1348813ZM35.5795673,149.3282171v16.4931743h11.4172665c3.1803434,0,5.5031076-4.336679,5.5031076-8.7655419,0-5.7167456-3.9063754-7.7276323-10.7861851-7.7276323h-6.134189ZM56.091075,189.7205638c0-5.2965352-2.8519047-9.521517-10.6748243-9.521517h-9.8366833v18.6090296h9.0975302c5.9109455,0,11.4139775-2.4378259,11.4139775-9.0875126Z"/>
    <path class="st0" d="M85.2007303,189.9308372c-.2167423-3.4959218-.2167423-7.5109666-.2167423-11.8412533v-43.1322935h19.4534871v50.3212894c0,9.935335,4.2350748,14.5875924,12.5835114,14.5875924,7.7145113,0,11.9528729-5.3947749,11.9528729-14.377319v-50.5315628h18.5992724v43.1322935c0,4.3302867,0,8.3453315-.2136378,11.8412533-1.0547315,15.2184127-11.6242509,24.7332009-31.1827065,24.7332009-19.7657011,0-29.9116457-9.5147882-30.9760573-24.7332009Z"/>
    <path class="st0" d="M159.9758991,134.9572904h54.342805l-.0559284,14.3709267h-34.8364174v16.8154814h30.5619794l.0326344,14.377319h-30.5946138v18.2870589h34.8364174v14.3776554h-54.2868765v-78.2284414Z"/>
    <path class="st0" d="M293.6344296,134.9572904v78.2284414h-17.1276949l-33.1935932-48.2054341v48.2054341h-18.6026368v-78.2284414h17.1243306l33.1902288,48.2050977v-48.2050977h18.6093655Z"/>
    <path class="st0" d="M352.2414997,192.1516609h-23.2485017l-6.7714769,21.0340709h-20.5112465l27.0593289-78.2284414h25.5878348l25.0520597,78.2284414h-20.9223731l-6.2456251-21.0340709ZM341.041243,150.3927052l-8.2502025,27.3749079h15.7509928l-7.5007903-27.3749079Z"/>
  </g>
  <path class="st0" d="M377.7205818,92.548001c-.5648785-.5719437-1.2515474-.8609435-2.017279-.8609435-.772124,0-1.4520641.2889998-2.0566422.9003067l-2.0240078,2.4179761c-13.996135,17.2292995-24.3849875,25.9689357-30.8738569,25.9689357-2.9243144,0-4.2875591-1.2878827-4.2875591-4.0611367,0-7.871964,4.0345581-18.2345747,11.9590061-30.7524037,9.6759415-12.5178291,11.0361582-15.3960517,11.2201895-16.4736609l.0097567-.1049685c0-2.7271622-1.678823-3.5285562-3.0750384-3.7125875l-.0820907-.0067287c-2.641707,0-5.2800496,2.3853417-8.0364817,7.2872357-1.6229743-6.1766556-5.4835942-9.3045148-11.515918-9.3045148-7.6780931,0-15.4155647,5.079533-22.9918,15.0935944-4.0873788,5.3947749-7.0641775,10.8030073-8.9532738,16.1846611-20.9681286,25.0094161-34.8559307,45.2612698-37.4188302,45.2612698-2.1058432,0-2.3850863-.9857618-2.3850863-1.944945,0-3.5288927,8.742664-26.9018769,13.3226686-39.892737,4.7016322-13.3195596,6.9883976-21.2181022,6.9883976-24.1552013,0-5.6248981-3.1541012-6.8010835-5.7924438-6.8010835-6.916145,0-15.1036871,6.0124741-25.0322932,18.3856351-5.1421102,6.3741444-11.8839806,15.6786592-20.0584017,27.7036074,1.215885-3.4104667,3.1248312-8.6605735,5.697232-15.6850515,4.021437-10.9867021,5.9764751-18.1952115,5.9764751-22.039346,0-4.441984-2.197946-6.7943548-6.3707798-6.7943548-3.1507369.0787264-6.9060519,2.4247049-11.4762184,7.1688097-4.3962284,4.5671387-10.3757314,11.3483724-17.735301,20.1142508-12.5639207,13.6741647-22.2856177,20.6131876-28.9224406,20.6131876-3.7815572,0-6.6336165-1.1829142-8.4964707-3.5154352-1.8924607-2.3722206-2.858294-6.4397497-2.858294-12.0908899,0-1.754185.1052262-3.1342515.3087709-4.1132846,16.7660247-8.7921205,27.8842736-15.2645046,33.0129263-19.2203364,3.9067118-2.5757653,5.8876556-5.7298666,5.8876556-9.3768488,0-2.9963121-.9756686-5.2766853-2.904385-6.8010835-1.8824472-1.485035-4.5503963-2.2406736-7.927892-2.2406736-5.6905033,0-11.6931414,2.6743415-17.8469982,7.9574191-8.0496028,7.3989329-13.135528,15.6194462-15.21202,24.5296562-.1675459.1116972-.3219707.2432443-.4763955.4010335l-2.0236714,2.4115838c-12.7281022,15.6783227-22.9692586,23.6293495-30.4206756,23.6293495-1.409673,0-2.5495231-.4403967-3.4794363-1.3339746-.9134277-.8804569-1.3733377-2.2931578-1.3733377-4.1923474,0-5.7429877,4.2249817-14.9358052,12.5242211-27.2827241,9.6628204-12.4522238,10.7767649-15.4552647,10.7767649-16.6314501,0-2.0697633-1.1435509-3.2133143-3.2133142-3.2133143-1.3965519,0-4.1266639,1.931824-12.9121335,16.9860552l-14.7322602,22.6832874c-5.8220503,9.0616069-11.94278,13.648259-18.1723333,13.648259-1.9647948,0-3.5876923-.5258518-4.8295598-1.5772189-1.2024275-1.025125-1.8201267-2.7268257-1.8201267-5.0596832,0-3.3838881,1.0116675-7.9510268,2.9895833-13.5691962,2.004158-5.6706536,4.0480156-10.7370655,6.0814436-15.06096,3.62074-7.5762355,6.9491158-13.27986,9.8697295-16.9335709.443761-.4861521.6638684-1.1038514.6638684-1.826519,0-.7492463-.3153192-1.4981561-.9363828-2.2144315-.5652149-.637549-1.2057919-.9857618-1.9055818-1.0712169l-.0131211-.0195134c-1.7545214-.2826075-2.8452516,1.3733378-2.8452516,1.3733378-1.038246,1.9187029-2.0832208,3.3838881-2.2474023,3.6140113-.134575.1577892-.3482128.4074258-.653698.7620309-.0100931.0067287-.0262421.0198498-.0363352.0329709-.1116972.1315471-.2398799.2758787-.3778193.4272756-.0228777.0262421-.0491199.0524842-.0656053.0787264-.1379394.1446681-.2728508.3021209-.4239112.4666388-.0328938.0393632-.0723341.0787264-.1116972.1248183-.1510604.1577892-.3054852.328363-.4695897.506002-.0428046.0457555-.0825042.0918474-.1282597.1379394-.1742746.1904236-.3613338.387576-.5618506.5978494-.0329709.0393632-.0689697.0723341-.0952118.1053049-.7098831.7489098-1.5247346,1.5836112-2.4411133,2.4835814-.0660187.0659417-.1413037.1315471-.2103504.2038811-.2334876.2233945-.4666388.4535177-.7065187.6900333-.1083329.0985762-.2166657.1971524-.325335.3021209-.2133014.2102734-.4336679.4141545-.6604267.624428-.1278462.1180896-.2526645.2365155-.3808472.3546051-.2170022.1971524-.4336679.4010335-.6569855.6045781-.1413037.1248183-.2826075.2563654-.4272756.3811837-.220107.2035447-.4468658.400697-.6702603.5978494-.1510604.1382758-.3054084.2694864-.4666388.4074258-.2267589.1971524-.4565456.3943047-.6899564.5981858-.1642583.1379394-.3186831.26915-.4828646.4074258-.2432443.2035447-.4928041.4138181-.7391531.6176992-.1611535.1312106-.3188659.2627577-.4864886.3939683-.266122.2233945-.5420008.4403967-.8178795.6573988-.1480325.1180896-.2957285.2429079-.4471254.3546051-.3482128.2762152-.7095466.5453651-1.0675161.8215803-.0824272.0588766-.1610768.1248183-.2432443.1904236-.4370323.3219707-.8871856.6570624-1.3403669.979033-.1480325.1116972-.3058217.2170022-.4602465.3286994-.3054852.2102734-.6042417.4269392-.9197434.6439413-.1905003.1312106-.3846247.2563654-.5784127.387576-.2826075.1840313-.5584862.3744549-.8410937.5520939-.2136378.1379394-.4171825.2694864-.6341846.4074258-.2725143.1709102-.5453651.3482128-.8212439.5123943-.2233945.1379394-.4403966.2694864-.6604267.4010335-.2758787.1641815-.5517574.328363-.8279726.4861521-.2297868.1312106-.4565456.2563654-.6798636.3811837-.2826075.1574527-.5618506.3088496-.8444581.45991-.2268354.1248183-.4566221.2496366-.6934741.3680626-.2821946.1510604-.5748952.2889998-.8639714.4336679-.2297868.1116972-.4565456.2233945-.6899568.3350917-.2988329.1443317-.6046546.2826075-.9135042.4205468-.2200301.0985762-.4400602.1971524-.6570624.2957285-.3448484.1510604-.6896968.2826075-1.0315173.4205468-.1937116.0787264-.3778193.1574527-.5652149.2297868-.5255153.2038811-1.0577594.3943047-1.5869755.5716073.1150616-.6240915.177639-1.2680328.177639-1.931824,0-5.1777727-3.7980425-9.3768488-8.4899994-9.3768488-4.6949848,0-8.4862986,4.1990761-8.4862986,9.3768488,0,4.8955017,3.3906168,8.9105465,7.717539,9.3374857l.0067287.0198498c.075362,0,.1544248-.0067287.2332273-.0067287.1741985.0131211.3548654.0329709.5288036.0329709.3156545,0,.6244279-.0262421.9299132-.059213-.4171825,1.425822-.9002305,2.7991598-1.4456718,4.113621-.0689697.1641815-.134575.328363-.2035447.4928809-.1510604.3546051-.3088496.6964256-.4700031,1.0446384-.1641815.3482128-.3350917.6964256-.5157586,1.038246-.1510604.3021209-.3054852.5978494-.4666388.8935779-.2365155.4272756-.4730311.8542147-.7260321,1.2616405-.1019406.1709102-.2035447.3350917-.3054852.4928809-.3418205.5389728-.6899572,1.0644882-1.0580958,1.5772189-4.7605901,6.5904737-9.6658484,9.9286063-14.5778354,9.9286063-5.0761685,0-7.5402365-3.3445249-7.5402365-10.2243348,0-3.6143478,1.1008234-8.687152,3.2657985-15.0676887,1.1499433-3.0094332,2.1881893-5.5327143,3.0918603-7.5170225.1312106-.2826075.2560289-.5520939.3778193-.8215803C85.0169589,41.5040439,102.6042274,16.7641143,102.6042274,8.471267c0-4.8887729-2.6612204-7.471267-7.6912969-7.471267-7.3366918,0-16.6247209,9.9420638-28.3902755,30.3910699-6.8078121,11.3022805-13.667772,25.5547812-20.4426133,42.4557177-.9658364,2.4179761-1.9318239,4.8820442-2.8977359,7.4053252-.7657317,1.4524006-17.676088,22.1772854-25.3576282,31.4293159-.1413037.1446681-.2694864.2957285-.3747913.4535177-.1904236.2758787-.3152419.5847283-.387576.9134277-.0097567.0393632-.0329709.0787264-.0460919.1248183-.0063923.0854551-.0063923.1709102-.0228777.2563654-.0097567.1116972-.0228777.2166657-.0228777.328363,0,.1248183.0131211.2432443.0296065.3613338.0097567.0659417.0097567.1315471.016149.1971524.0164854.0659417.0460919.1248183.0592878.1971524.078988.2826075.1906852.5520939.3548667.8084592.1019406.1574527.2233945.3021209.3579695.446789.5488044.5716073,1.2421271.8673358,2.0536143.8673358.772124,0,1.4520641-.2893362,2.0566422-.9003067l15.658809-18.9178792c-.7983661,3.1409803-1.2024275,6.4656554-1.2024275,9.9090929h0c0,1.0840015.059213,2.1027342.1577892,3.0817673.8081228,8.4042081,5.0991217,12.6756183,12.8035398,12.6756183,7.1623416,0,13.6744252-3.9427108,19.3615641-11.716435.3646982-.4992732.712911-1.0116675,1.0547315-1.5307905.0918474-.1382758.1773025-.2762152.266122-.4141545.2957285-.4666388.5813639-.9396699.8575791-1.4194297.0393632-.0719976.0884831-.1379394.1281827-.2102734.3152419-.5584862.6208033-1.1364858.91982-1.7148218.0460919-.1053049.0985762-.2102734.147696-.3088496.266122-.5389728.5224874-1.0776092.772124-1.6360954.0232142-.0659417.0528969-.1251547.0820907-.19076.2795795-.6439413.5520939-1.2946114.8051711-1.9580661v-.0131211c.2562891-.6637911.499197-1.3470956.7259558-2.0240078.0100931-.0329709.0198498-.0656053.0296065-.0985762.4632744-1.4063086.8639714-2.8452517,1.2092325-4.3171657v-.0063923h.0130448c8.2565883-2.004158,15.9084456-6.7617204,22.0228601-11.644101-1.0776092,2.5495232-2.2507666,5.5330507-3.5124071,8.9431809-2.8879792,7.9116636-4.3531644,14.5613503-4.3531644,19.7657016,0,3.4367088,1.0678525,6.3344448,3.1672223,8.6080892,2.1124908,2.2934943,5.0664118,3.4565586,8.7853915,3.4565586,7.7111467,0,14.499109-3.9033476,20.199369-11.598009.0265786,3.4235877,1.0187326,6.1241713,2.967042,8.0297532,1.958066,1.9187029,4.7572258,2.8913437,8.3123605,2.8913437,8.4241357,0,18.7338474-7.2546013,31.4095439-22.1180724.0921053,6.4922339,1.4718354,11.5519171,4.0970569,15.0343814,2.7696319,3.6601033,7.2905999,5.5195932,13.4443776,5.5195932,8.9892726,0,21.7107256-8.5290264,35.9829962-26.3692963.0033644-.0134575.0131211-.0198498.0198498-.0265786.1444116-.1443317.2627577-.2889998.3646982-.4336679,14.3705899-17.0846314,19.621033-20.8497031,21.4576451-20.8497031.2990929,0,.4827878.0326344.4827878.5978494,0,3.0817673-2.4378259,11.3678858-7.2445079,24.6282324-4.9247716,13.5823173-7.316842,21.5003732-7.316842,24.2144143,0,3.3838881,2.1488261,3.8898901,3.4367087,3.8898901,1.4127009,0,2.6480993-.7751519,3.6567388-2.2931578,10.3363683-15.0935944,17.6464815-25.5679023,21.7173748-31.1204663,11.0590359-14.3971688,19.3713964-21.7042543,24.7005658-21.7042543.1116972,0,.2593933,0,.2593933.5981858,0,2.4835814-2.3654918,10.1587295-7.0211135,22.7946482-4.7737112,12.9649545-13.5197395,36.6141539-13.5197395,41.483077,0,.7556386.016149,1.4194297.0457555,2.0371289.2233945,1.9123106,1.0779456,3.6140113,3.1968288,4.6916206,0,0,4.2714101,2.7204334,9.186425-1.0776092,7.165863-6.1702633,19.7064881-23.7346545,30.9923649-36.9293958-.0296885.5981858-.0428096,1.1960352-.0428096,1.794221,0,4.1856186.9363055,7.5829642,2.7860387,10.0863955,1.8924607,2.5757653,4.8232497,3.876769,8.7197862,3.876769,5.6347371,0,11.203704-3.2526775,16.5853577-9.6658486-.0524842,1.0776092-.0820907,2.4771891-.0820907,4.2118607,0,6.2950816,3.2988522,9.4888825,9.8206096,9.4888825,8.9825439,0,21.1979154-9.8764585,37.3331198-30.1807965.5520939-.5719437.8347014-1.2353984.8347014-1.9977657,0-.7687596-.2859718-1.4456718-.8609435-2.0105503ZM178.9105997,78.2228298c7.1227176-8.4698134,13.8155473-12.7674657,19.9002761-12.7674657,4.5503167,0,5.0761685,1.8729474,5.0761685,3.2856484,0,.8410937-.5817004,2.3722206-3.3347682,4.8689231-5.2110799,4.0281659-14.7749877,9.6005798-28.4461241,16.5853582.8148515-2.8321307,3.1016958-6.8535678,6.8044477-11.9724639ZM70.3139688,36.6216633c11.325158-19.8117935,19.6015196-29.8652181,24.5989617-29.8652181.1675459,0,.3186063.0131211.45991.0326344.0326344.0067287.0787264.0067287.1116972.0067287.1116972.0131211.2102734.0457555.3054852.0723341.0427276.0195134.1019406.0195134.1413037.0326344.0690465.0262421.1150616.059213.1742746.0921839.0524842.0262421.1214539.0524842.1706506.0854551.0625006.0393632.1116204.0918474.1610767.1443317.0326344.0262421.0622409.0460919.0820907.0723341.2694864.3286994.3287762.7492463.3287762,1.1761854,0,5.94014-14.2135504,26.1132674-42.2650334,59.9541672,4.083678-9.803788,9.3701199-20.481977,15.7308066-31.8037708ZM71.0137587,90.4516591l-.193788.0524842c-.0359988.2301232-.0787264.4403967-.1180896.6570624-.4403966.0723341-1.8923846.2630941-2.7567686-.0326344h-.0030279c-.0164854,0-.0296065-.0067287-.0396996-.0067287v-.0063923c-1.2219409-.3680626-2.1683395-1.8467053-2.1683395-3.5551348,0-1.9711872,1.2616405-3.6402535,2.7564322-3.6402535,1.1926708,0,2.2376456,1.0644882,2.6087361,2.4970389h0s.0067287.0195134.0100931.0393632c.0720738.2889998.1180896.5978494.1312106.906699.0528207.7162754.0528207,1.7938846-.2267589,3.088496ZM313.866433,116.9461102c-1.5045483,0-2.7631609-.6240915-3.8569191-1.9055819-1.1072157-1.2946114-1.6690663-3.416859-1.6690663-6.3014739,0-8.7066654,3.3377961-17.511907,9.9255781-26.1724804,6.544718-8.6016969,12.7476156-12.9649545,18.4512399-12.9649545,2.063371,0,3.6732242.9726407,4.9217437,2.9767988,1.2747616,2.0435212,1.9288791,5.0728042,1.9483094,9.0023939-12.3731607,23.4651681-22.3744372,35.3652979-29.7208857,35.3652979Z"/>
</svg>