<?xml version="1.0" encoding="UTF-8"?>
<svg id="Capa_1" xmlns="http://www.w3.org/2000/svg" version="1.1" viewBox="0 0 797.6437378 157.767114">
  <!-- Generator: Adobe Illustrator 30.0.0, SVG Export Plug-In . SVG Version: 2.1.1 Build 123)  -->
  <defs>
    <style>
      .st0 {
        fill: #e0dfd7;
      }
    </style>
  </defs>
  <g>
    <path class="st0" d="M78.3497286,106.2881088c0,15.8838501-12.4312363,23.1315918-24.8628426,24.4049377-3.688076.3362885-7.941925.5725708-12.6495667.5725708H13.6633272V46.0877304h29.8104286c3.6885262,0,7.1334457,0,10.5890732.2220001,13.1220436.9300995,20.3767433,8.0631866,20.3767433,20.1548309,0,7.7129669-4.6076355,15.9981384-14.5061035,18.9888306,13.0074692,2.6543884,18.4162598,9.7805176,18.4162598,20.8347321v-.0000153ZM34.8344297,61.7352982v17.9583435h12.4315205c3.4628716,0,5.9919777-4.7219238,5.9919777-9.5442352,0-6.2245941-4.2533989-8.4141235-11.744379-8.4141235h-6.679121l.0000019.0000153ZM57.1680803,105.7159195c0-5.7670593-3.1052551-10.3673706-11.6231251-10.3673706h-10.7105274v20.2621613h9.9057121c6.4360466,0,12.4279404-2.6543884,12.4279404-9.8948059v.0000153Z"/>
    <path class="st0" d="M88.863698,105.9448624c-.2360001-3.806488-.2360001-8.1782074-.2360001-12.8931732v-46.9639587h21.1816406v54.7915955c0,10.8179474,4.6112976,15.8834839,13.7013702,15.8834839,8.3998337,0,13.0147095-5.8740234,13.0147095-15.6545258v-55.0205536h20.2515411v46.9639587c0,4.7149658,0,9.0866852-.2326202,12.8931732-1.1484222,16.570343-12.6568909,26.9303741-33.9528351,26.9303741-21.5215912,0-32.5688553-10.3600311-33.727829-26.9303894l.0000229.0000153Z"/>
    <path class="st0" d="M170.2815371,46.0877304h59.1703644l-.0608978,15.6475677h-37.9311218v18.3092957h33.2769623l.0355377,15.6545258h-33.3125v19.9115906h37.9311218v15.654892h-59.1094666V46.0877151v.0000153Z"/>
    <path class="st0" d="M315.8136568,46.0877304v85.177887h-18.649231l-36.1423645-52.4877777v52.4877777h-20.2552032V46.0877304h18.6455688l36.1386871,52.4874115v-52.4874115h20.2625427Z"/>
    <path class="st0" d="M379.6271029,108.3629837h-25.3137817l-7.3730164,22.9026337h-22.333374l29.4631653-85.177887h27.8609314l27.2775574,85.177887h-22.7810059l-6.8004456-22.9026337h-.0000305ZM367.4318819,62.8943558l-8.9831238,29.8067627h17.150238l-8.1671143-29.8067627Z"/>
  </g>
  <path class="st0" d="M796.7062988,99.6806946c-.6150513-.6227493-1.3627319-.9374237-2.1964722-.9374237-.8407288,0-1.5810547.3146744-2.2393494.9802856l-2.2037964,2.6327744c-15.2394714,18.7598648-26.551239,28.2759018-33.6165466,28.2759018-3.184082,0-4.668457-1.402298-4.668457-4.4219055,0-8.5712738,4.3929749-19.8544464,13.0213928-33.4842987,10.5354919-13.6298523,12.016571-16.7637634,12.2169495-17.9371033l.0106201-.114296c0-2.969429-1.8279724-3.8420181-3.3482056-4.0423965l-.089386-.0073242c-2.8763733,0-5.749115,2.5972443-8.7503967,7.9346008-1.7671509-6.7253571-5.9707336-10.1310806-12.5389404-10.1310806-8.3601685,0-16.7850037,5.530777-25.0342712,16.4344406-4.45047,5.8740234-7.6917114,11.7626953-9.7486267,17.6224289-22.8308411,27.2311325-37.9523621,49.2820663-40.7429504,49.2820663-2.2929077,0-2.5969543-1.0733337-2.5969543-2.1177216,0-3.8423767,9.5193176-29.2917099,14.5061951-43.436615,5.1192932-14.5028076,7.6092224-23.1030197,7.6092224-26.301033,0-6.124588-3.4342957-7.4052582-6.3070068-7.4052582-7.5305481,0-16.4454346,6.5465927-27.2560425,20.0189285-5.5989075,6.9403915-12.9396973,17.0714798-21.8403015,30.1646652,1.3238983-3.7134399,3.40242-9.4299393,6.2033539-17.0784378,4.3786774-11.9627075,6.5074005-19.8115845,6.5074005-23.9972153,0-4.836586-2.3932037-7.397934-6.9367371-7.397934-3.4306335.0857162-7.5195465,2.6401062-12.4957123,7.8056564-4.7867737,4.9728622-11.2974701,12.3565063-19.3108215,21.9011078-13.6800385,14.888916-24.2653656,22.4443665-31.4917755,22.4443665-4.1174927,0-7.2229156-1.288002-9.2512512-3.8277283-2.0605774-2.5829544-3.1122131-7.0118256-3.1122131-13.1649857,0-1.9100189.1145782-3.4126816.3361969-4.4786911,18.2554474-9.5731735,30.3613739-16.6205292,35.9456329-20.9277802,4.2537689-2.8045807,6.4106903-6.238884,6.4106903-10.2098465,0-3.2624893-1.0623474-5.7454376-3.1623993-7.4052582-2.0496826-1.6169586-4.9546356-2.439724-8.6321716-2.439724-6.1960144,0-12.7319031,2.9119148-19.4324341,8.6643181-8.7646942,8.056221-14.3024292,17.0070038-16.563385,26.7087555-.1824341.1216202-.3505707.2648544-.5187225.4366608l-2.2034454,2.6258163c-13.8588104,17.0711136-25.0097351,25.7284698-33.1231079,25.7284698-1.5349045,0-2.7760086-.4795227-3.7885361-1.4524765-.9945755-.9586716-1.4953384-2.4968719-1.4953384-4.5647736,0-6.2531662,4.6003113-16.2626343,13.6368103-29.7063904,10.521225-13.5584183,11.7341156-16.8282394,11.7341156-18.1089096,0-2.2536316-1.2451324-3.4987717-3.498764-3.4987717-1.5206146,0-4.4932556,2.1034393-14.0591888,18.495018l-16.0410004,24.6983643c-6.3392563,9.8666-13.0037231,14.8607025-19.7866821,14.8607025-2.1393356,0-3.9064026-.5725708-5.2585983-1.7173309-1.3092422-1.1161957-1.9818192-2.9690628-1.9818192-5.5091629,0-3.684494,1.1015396-8.6573563,3.2551651-14.7746201,2.1821976-6.174408,4.4076233-11.6908951,6.6216888-16.3989029,3.9423904-8.2492752,7.5664444-14.4595795,10.7465134-18.4378738.4831848-.5293427.722847-1.2019119.722847-1.9887772,0-.8158035-.3433304-1.6312485-1.0195694-2.4111481-.6154251-.6941833-1.312912-1.0733337-2.0748672-1.1663818l-.0142899-.0212479c-1.9103851-.3077164-3.0980072,1.4953384-3.0980072,1.4953384-1.1304779,2.0891495-2.2682877,3.684494-2.447052,3.9350662-.1465302.1718063-.3791428.4436188-.7117691.8297272-.0109863.0073242-.0285721.0216141-.039566.0358963-.1216202.1432343-.2611923.3003845-.4113846.4652328-.02491.0285721-.0534821.0571442-.071434.0857162-.1501923.1575165-.2970886.3289566-.4615707.5080948-.0358124.0428619-.0787582.0857162-.1216202.13591-.1644821.1718063-.3326263.3575363-.5113068.5509491-.046608.0498199-.0898361.1000061-.1396561.1501923-.1897583.2073364-.3934326.4220047-.611763.6509628-.0358963.0428619-.0750961.0787582-.1036682.1146622-.7729492.8154373-1.6601868,1.7242889-2.6579666,2.7042084-.0718842.0718002-.1538544.1432343-.2290344.2219925-.2542267.2432404-.5080948.4938049-.7692795.7513351-.1179581.1073303-.2359161.2146683-.3542328.3289566-.2322464.2289505-.4721909.450943-.7190933.6799011-.1392059.1285782-.2751083.2575302-.4146805.3861084-.2362823.2146683-.4721909.4366608-.7153473.658287-.1538544.13591-.3077164.2791367-.4652328.4150467-.2396622.2216263-.4865646.4362946-.729805.6509628-.1644821.1505585-.3325424.2934265-.5080948.4436188-.2469025.2146683-.4971008.4293365-.7512512.651329-.1788483.1501923-.3469925.2930603-.5257568.4436188-.2648544.2216263-.5365829.4505768-.8048172.6725693-.1754684.142868-.3471909.2861023-.5297089.4289703-.2897644.2432404-.5901489.4795227-.8905334.7157974-.1611862.1285782-.3219986.2644882-.4868469.3861084-.3791428.3007507-.772583.593811-1.1623459.8945694-.0897522.0641098-.1753845.13591-.2648544.2073364-.475853.3505707-.9659958.7154312-1.4594421,1.0660095-.1611862.1216202-.3329926.2362823-.5011292.3579025-.3326263.2289505-.6579208.4648666-1.0014496.701149-.2074203.142868-.4187927.2791367-.6297989.4220047-.3077164.2003784-.6081009.4077225-.9158096.6011429-.2326126.1501923-.4542465.2934265-.6905212.4436188-.2967224.1860962-.593811.3791428-.8941956.5579147-.2432404.1501923-.4795227.2934265-.7190933.4366608-.3003845.1787643-.6007767.3575363-.9015274.5293427-.2501984.142868-.4971008.2791367-.7402573.4150467-.3077164.1714401-.611763.3362885-.9194794.5007629-.2469864.13591-.4971848.2718124-.7550812.4007568-.3072662.1644821-.6259689.3146744-.9407196.4721909-.2501984.1216202-.4971008.2432404-.7512512.3648605-.3253784.1571503-.658371.3077164-.9946594.4579086-.2395782.1073303-.4791565.2146683-.7154312.3219986-.3754807.1644821-.7509689.3077164-1.1231537.4579086-.2109222.0857162-.4113846.1714401-.6154251.2501984-.572197.2219925-1.1517258.4293365-1.727951.6223831.1252823-.6795349.1934204-1.3806763.1934204-2.1034393,0-5.6377411-4.1354446-10.2098465-9.2442093-10.2098465-5.1120644,0-9.240181,4.5721054-9.240181,10.2098465,0,5.3303986,3.6918221,9.7021179,8.4031296,10.1669846l.007328.0216141c.082058,0,.1681442-.0073242.2539444-.0073242.1896744.0142899.3863907.0358963.575779.0358963.3436966,0,.6799011-.0285721,1.0125237-.064476-.4542427,1.5524826-.9802017,3.047821-1.5740967,4.4790573-.0750961.1787643-.1465302.3575363-.2216263.5366669-.1644783.3861084-.3362846.7582932-.5117569,1.1374359-.1787682.3791428-.3648605.7582932-.5615768,1.1304779-.1644783.3289566-.3326225.6509628-.508091.9729614-.2575264.4652328-.5150528.9300995-.7905312,1.3737183-.1109962.1860962-.2216263.3648605-.3326225.5366669-.3721848.586853-.7512512,1.15905-1.152092,1.7173309-5.1834984,7.1759415-10.5245171,10.8106155-15.8728638,10.8106155-5.5271111,0-8.2100754-3.6416397-8.2100754-11.1326141,0-3.9354324,1.198616-9.4588776,3.5559158-16.4062347,1.2520981-3.2767792,2.382576-6.0242157,3.3665276-8.1847992.142868-.3077164.2787743-.6011429.4113846-.8945618,39.3835411-46.3771706,58.5331841-73.3148766,58.5331841-82.3444214,0-5.3230686-2.8976288-8.1349792-8.3745575-8.1349792-7.9884491,0-18.1015854,10.8252697-30.9123344,33.0908699-7.4125862,12.306324-14.8819542,27.8249474-22.2586403,46.2272835-1.0516376,2.6327744-2.1034374,5.3157425-3.1551571,8.063179-.8337555,1.5814285-19.2463474,24.1474152-27.610281,34.221344-.1538565.1575165-.2934263.3219986-.4080861.4938049-.2073399.3003845-.3432465.636673-.4220064.9945755-.0106234.0428619-.0358998.0857162-.0501865.13591-.0069602.0930481-.0069602.1860962-.0249101.2791367-.0106234.1216202-.0249101.2359161-.0249101.3575363,0,.13591.0142867.2648544.0322366.3934326.0106234.0718002.0106234.1432343.0175836.2146683.0179499.0718002.0501865.13591.0645547.2146683.0860049.3077164.2076248.6011429.3863914.8802795.1109965.1714401.2432398.3289566.3897698.4864807.5975574.6223831,1.3524717.9443893,2.2360476.9443893.8407159,0,1.5810585-.3150406,2.2393446-.9802856l17.0498638-20.5984497c-.8692894,3.4200134-1.3092461,7.0400314-1.3092461,10.7893677h0c0,1.1802979.0644741,2.2895279.1718063,3.3555374.8799133,9.150795,5.552103,13.8016586,13.9409466,13.8016586,7.7986107,0,14.8891945-4.2929688,21.0815544-12.7572708.3970947-.5436249.7762413-1.1015396,1.1484299-1.6667786.1000061-.1505585.1930542-.3007507.2897644-.450943.3219986-.5080948.6330109-1.0231476.9337616-1.5455246.0428581-.078392.096344-.1501923.1395683-.2289505.3432465-.6081009.6759529-1.2374496,1.0015335-1.867157.0501862-.1146622.1073341-.2289505.1608162-.3362885.2897644-.586853.5689011-1.1733398.8407173-1.7814407.0252762-.0718002.0575943-.1362762.0893822-.2077026.3044167-.701149.6011391-1.4096222.8766975-2.1320114v-.0142899c.2790565-.7227554.5435448-1.4667664.7904472-2.2038116.0109901-.0358963.0216141-.071434.032238-.1073303.5044289-1.5312347.9407234-3.0980072,1.3166542-4.7006836v-.006958h.0142059c8.9900665-2.1821976,17.3216782-7.3623962,23.9792633-12.6785049-1.1733398,2.7760086-2.4507141,6.0245819-3.8244324,9.737648-3.1445312,8.614502-4.7398758,15.8549118-4.7398758,21.5215912,0,3.742012,1.1627121,6.897171,3.4485855,9.3727875,2.3001556,2.4972382,5.5164871,3.7636261,9.5658417,3.7636261,8.3961716,0,15.7871399-4.2501068,21.9937897-12.6283188.0289383,3.7277222,1.10923,6.6682205,3.2306213,8.7430801,2.1320114,2.0891571,5.1798325,3.1481934,9.0507889,3.1481934,9.172493,0,20.3980789-7.8990631,34.1998215-24.0829391.1002808,7.0689697,1.6025848,12.5781326,4.4610138,16.3699646,3.0156708,3.9852524,7.9382629,6.0099258,14.6387177,6.0099258,9.7878418,0,23.6394043-9.286705,39.1795502-28.7118225.0036621-.0146561.0142822-.0216141.0216064-.0289383.1572418-.1571503.2861023-.3146744.3970947-.4721909,15.6472015-18.6023483,21.3640747-22.701889,23.3638458-22.701889.3256683,0,.5256805.0355301.5256805.6509628,0,3.3555374-2.6543884,12.3777542-7.8880768,26.8160858-5.3622589,14.7889023-7.9668427,23.4103622-7.9668427,26.3655014,0,3.684494,2.3397217,4.2354431,3.7420044,4.2354431,1.5381927,0,2.8833466-.8440094,3.9815826-2.4968719,11.2546082-16.4344406,19.2141113-27.8392334,23.646637-33.8850632,12.0414734-15.6761475,21.0922546-23.6323624,26.8948364-23.6323624.1216125,0,.2824402,0,.2824402.651329,0,2.7042084-2.5756226,11.0611801-7.6448364,24.8196182-5.1977844,14.1166992-14.7207642,39.8667755-14.7207642,45.1682281,0,.8227692.0175781,1.5455322.0498352,2.2180939.2432251,2.0821838,1.1737061,3.9350586,3.480835,5.1083984,0,0,4.6508484,2.9620972,10.0025024-1.1733398,7.8024292-6.718399,21.4571228-25.8431244,33.745575-40.2100296-.0323181.651329-.0466003,1.3022842-.0466003,1.9536133,0,4.5574493,1.0194702,8.2565994,3.0335388,10.9824295,2.0605774,2.8045807,5.2517395,4.2211609,9.4944153,4.2211609,6.1353149,0,12.1989746-3.541626,18.0587158-10.5245209-.0571594,1.1733398-.089386,2.6972504-.089386,4.5860214,0,6.8543015,3.5919189,10.3318253,10.6930237,10.3318253,9.7805176,0,23.0810242-10.7538376,40.6496277-32.8619156.6011353-.6227493.908844-1.3451462.908844-2.1752396,0-.8370514-.3113708-1.5740967-.937439-2.1891556v.0000229ZM580.2349854,84.0829391c7.7554626-9.222229,15.0428619-13.9016647,21.6681213-13.9016647,4.9545441,0,5.5271149,2.0393295,5.5271149,3.5775299,0,.9158096-.6333771,2.5829544-3.631012,5.3014526-5.6740112,4.3860092-16.0875244,10.4534531-30.9731445,18.0587234.8872375-3.083725,3.377243-7.46241,7.4089203-13.0360413ZM461.9911423,38.7861252c12.3312302-21.5717793,21.3428268-32.5183029,26.7842178-32.5183029.1824265,0,.3469086.0142865.5007629.0355334.0355301.0073266.0857162.0073266.1216202.0073266.1216202.0142865.2289505.0498204.3326263.0787597.046524.0212469.1110001.0212469.1538544.0355334.0751801.0285735.1252823.0644732.1897583.1003728.0571442.0285735.1322403.0571465.1858139.0930467.0680542.04286.1215363.1000066.1753845.1571536.0355301.0285735.0677719.0501866.089386.0787597.2934265.3578997.3579865.8158059.3579865,1.2806721,0,6.4678335-15.4762115,28.4330473-46.0196609,65.2802114,4.4464531-10.6747093,10.2025146-22.3014984,17.1282501-34.6290665ZM462.7530975,97.3981247l-.2110023.0571442c-.039196.2505646-.0857201.4795227-.128582.7154312-.4795189.0787582-2.0604935.2864685-3.001667-.0355301h-.0032959c-.0179482,0-.032238-.0073242-.0432281-.0073242v-.006958c-1.3304939-.4007568-2.3609657-2.0107574-2.3609657-3.8709564,0-2.1463013,1.3737183-3.9636383,3.0013008-3.9636383,1.2986221,0,2.4364281,1.15905,2.8404846,2.7188644h0s.007328.0212479.0109901.0428619c.078476.3146744.1285782.6509628.142868.9872437.0575142.7799072.0575142,1.9532471-.2469025,3.3628616ZM727.179657,126.2462158c-1.6382141,0-3.0086365-.6795349-4.1995544-2.0748672-1.2055664-1.4096222-1.8173523-3.7203979-1.8173523-6.8612671,0-9.4801254,3.6343079-19.0675812,10.807312-28.4975204,7.1261292-9.3658295,13.8800659-14.1166992,20.0903625-14.1166992,2.2466736,0,3.9995422,1.0590439,5.3589783,3.2412415,1.3880005,2.2250595,2.1002197,5.5234451,2.1213989,9.802124-13.4723206,25.5497055-24.3620911,38.5069885-32.361145,38.5069885Z"/>
</svg>